<svg width="20" height="20" viewBox="0 0 20 20" fill="none" xmlns="http://www.w3.org/2000/svg">
<path d="M11.4417 2.92471L12.9083 5.85804C13.1083 6.26637 13.6417 6.65804 14.0917 6.73304L16.75 7.17471C18.45 7.45804 18.85 8.69137 17.625 9.90804L15.5583 11.9747C15.2083 12.3247 15.0167 12.9997 15.125 13.483L15.7167 16.0414C16.1833 18.0664 15.1083 18.8497 13.3167 17.7914L10.825 16.3164C10.375 16.0497 9.63332 16.0497 9.17499 16.3164L6.68332 17.7914C4.89999 18.8497 3.81665 18.058 4.28332 16.0414L4.87499 13.483C4.98332 12.9997 4.79165 12.3247 4.44165 11.9747L2.37499 9.90804C1.15832 8.69137 1.54999 7.45804 3.24999 7.17471L5.90832 6.73304C6.34999 6.65804 6.88332 6.26637 7.08332 5.85804L8.54999 2.92471C9.34999 1.33304 10.65 1.33304 11.4417 2.92471Z" fill="#FFB000" stroke="#FFB000" stroke-width="1.875" stroke-linecap="round" stroke-linejoin="round"/>
</svg>
